<?xml version="1.0" encoding="UTF-8"?>
<!DOCTYPE svg PUBLIC "-//W3C//DTD SVG 1.1//EN" "http://www.w3.org/Graphics/SVG/1.1/DTD/svg11.dtd">
<!-- Creator: CorelDRAW X7 -->
<svg xmlns="http://www.w3.org/2000/svg" xml:space="preserve" width="3.374in" height="1.48in" version="1.1" style="shape-rendering:geometricPrecision; text-rendering:geometricPrecision; image-rendering:optimizeQuality; fill-rule:evenodd; clip-rule:evenodd"
viewBox="0 0 3374 1480"
 xmlns:xlink="http://www.w3.org/1999/xlink">
 <defs>
  <style type="text/css">
   <![CDATA[
    .fil3 {fill:url(#id0)}
    .fil2 {fill:url(#id1)}
    .fil1 {fill:url(#id2)}
    .fil0 {fill:url(#id3)}
    .fil4 {fill:url(#id4);fill-rule:nonzero}
   ]]>
  </style>
  <linearGradient id="id0" gradientUnits="userSpaceOnUse" x1="815.453" y1="715.587" x2="683.291" y2="376.681">
   <stop offset="0" style="stop-opacity:1; stop-color:#8F6FFE"/>
   <stop offset="0.368627" style="stop-opacity:1; stop-color:#7490FE"/>
   <stop offset="1" style="stop-opacity:1; stop-color:#59B2FE"/>
  </linearGradient>
  <linearGradient id="id1" gradientUnits="userSpaceOnUse" xlink:href="#id0" x1="879.24" y1="1135.77" x2="631.969" y2="502.02">
  </linearGradient>
  <linearGradient id="id2" gradientUnits="userSpaceOnUse" xlink:href="#id0" x1="999.087" y1="1420.66" x2="683.421" y2="579.287">
  </linearGradient>
  <linearGradient id="id3" gradientUnits="userSpaceOnUse" xlink:href="#id0" x1="778.972" y1="1184.04" x2="457.941" y2="329.409">
  </linearGradient>
  <linearGradient id="id4" gradientUnits="objectBoundingBox" xlink:href="#id0" x1="52.1716%" y1="98.7245%" x2="45.4996%" y2="22.8943%">
  </linearGradient>
 </defs>
 <g id="Layer_x0020_1">
  <metadata id="CorelCorpID_0Corel-Layer"/>
  <g id="_1945128450768">
   <g>
    <path class="fil0" d="M0 723c0,76 4,116 19,186 12,56 32,107 57,157 5,10 9,20 14,29l16 27c5,9 11,18 17,27 12,17 22,32 36,49 3,4 6,8 9,12 2,2 3,3 5,6l15 17c2,2 3,3 5,6 3,3 2,3 6,5 6,-2 15,-14 21,-19l22 -21c4,-4 11,-9 14,-14l-34 -40c-6,-7 -11,-15 -16,-22 -19,-25 -37,-53 -51,-81 -2,-5 -4,-8 -7,-13 -21,-45 -38,-90 -50,-139 -25,-101 -24,-215 1,-316 8,-32 18,-60 30,-90 15,-37 34,-70 54,-105 10,-17 22,-31 33,-47 12,-15 24,-30 37,-43l9 -11c16,-17 35,-32 52,-48 21,-18 45,-36 69,-51 9,-5 16,-10 25,-15 8,-5 17,-9 26,-14 4,-2 8,-5 12,-7 23,-11 46,-21 71,-30 19,-7 39,-13 61,-18 82,-21 172,-25 257,-14 44,7 87,18 128,32 10,4 20,8 30,12 19,8 35,16 54,25 44,22 83,51 121,82 7,6 36,31 42,39l56 -55c-3,-6 -16,-18 -22,-23 -18,-19 -56,-48 -76,-62 -26,-19 -55,-37 -84,-52 -21,-10 -41,-20 -63,-29 -11,-4 -21,-9 -32,-13 -23,-7 -47,-15 -71,-21 -116,-28 -239,-27 -355,0 -44,10 -93,27 -134,47 -15,7 -30,14 -44,22 -5,3 -10,6 -15,9 -19,10 -37,23 -55,35 -22,15 -42,33 -63,49 -26,21 -77,76 -98,105 -7,9 -14,17 -20,26 -18,28 -36,55 -51,85 -3,6 -5,9 -8,14 -2,6 -5,11 -7,16 -31,62 -53,142 -61,209 -4,27 -7,55 -7,85z"/>
    <path class="fil1" d="M1242 310c1,3 26,34 30,39 16,21 29,43 42,65 5,8 8,15 12,23 44,77 74,191 74,282 0,70 -3,114 -20,182 -8,32 -17,60 -29,90 -4,10 -8,19 -13,28 -8,18 -16,35 -27,52 -22,37 -54,85 -84,115 -13,12 -20,23 -35,35l-26 24c-14,12 -30,24 -46,35l-48 31c-26,15 -53,29 -80,40 -71,28 -153,49 -231,49 -66,0 -113,-2 -177,-18 -30,-8 -58,-16 -86,-28 -44,-17 -86,-39 -125,-65l-74 -57c-4,-4 -6,-7 -10,-10 -5,7 -52,48 -57,56 3,5 6,6 11,10 26,24 54,46 85,67 17,11 34,23 53,32l43 23c86,43 203,70 299,70 103,0 166,-9 263,-42 22,-7 43,-16 65,-26 59,-29 115,-62 165,-105 22,-20 50,-44 69,-66 3,-3 3,-4 5,-6l36 -43c7,-9 14,-17 20,-26 18,-28 36,-55 51,-85 8,-16 15,-29 22,-46 2,-5 4,-10 6,-15 5,-11 9,-22 13,-33 33,-99 42,-160 42,-266 0,-91 -24,-184 -57,-266 -22,-55 -53,-108 -88,-155l-26 -34c-4,-4 -6,-8 -11,-11 -7,6 -54,51 -56,55z"/>
   </g>
   <g>
    <path class="fil2" d="M310 288l0 850c0,10 5,21 11,27 34,35 66,-16 82,-29l41 -37c4,-4 5,-7 9,-11 7,-7 13,-13 20,-20 7,-7 32,-33 40,-38 0,13 2,35 0,46 -2,14 0,32 0,46 0,17 0,32 6,43 7,12 17,18 28,19l7 0c13,-1 25,-10 30,-25 11,-31 5,-89 5,-123 0,-12 0,-25 0,-37 -1,-7 -2,-9 -2,-17 2,-26 -2,-22 17,-39l57 -55c6,2 44,32 50,36l246 186c16,12 33,24 48,37 24,21 65,51 89,12 18,-30 -18,-53 -39,-69 -30,-23 -79,-61 -109,-81 -5,-4 -9,-7 -14,-10 -18,-14 -35,-29 -54,-42 -44,-31 -114,-84 -156,-117 -3,-3 -4,-4 -5,-7 5,-7 19,-17 26,-23l37 -38c8,-8 17,-15 25,-24 4,-4 10,-8 13,-13l265 205c4,4 8,7 12,10 15,12 64,52 79,58 13,5 23,4 34,-3 11,-7 15,-23 15,-38 0,-14 -28,-35 -37,-42 -46,-34 -89,-70 -135,-104 -30,-22 -59,-45 -89,-69l-33 -26c-10,-9 -50,-36 -55,-44 4,-6 13,-14 20,-19 12,-9 29,-28 40,-39l31 -28c20,-19 39,-40 59,-59l71 -68c7,-7 14,-14 21,-21l60 -58c14,-13 15,-19 15,-38 0,-16 -23,-30 -37,-30 -17,0 -44,29 -54,39 -47,47 -96,92 -143,138l-41 40c-3,2 -3,2 -6,5 -10,10 -20,20 -30,29l-59 58c-12,10 -24,24 -36,34 -3,2 -4,3 -7,6l-36 33c-8,8 -15,15 -23,23 -8,8 -14,17 -23,24 -5,4 -9,7 -13,11 -4,4 -8,7 -12,11 -31,31 -62,64 -94,93 -3,3 -4,3 -7,5 -2,2 -3,4 -5,6l-13 11c-8,8 -15,15 -23,23l-72 69c-8,7 -15,16 -24,23 -11,10 -42,41 -48,45l1 -590c0,-28 -1,-52 -1,-80 0,-26 1,-56 0,-82 -1,-18 -5,-32 -20,-40 -14,-7 -33,-3 -43,7 -7,6 -12,15 -12,25z"/>
    <path class="fil3" d="M511 284l0 411c0,13 1,25 8,33 8,10 20,13 34,13 13,0 26,-14 34,-21 18,-16 25,-26 41,-42l351 -351c19,-19 31,-39 8,-61 -8,-8 -18,-10 -30,-10 -17,0 -40,28 -51,38l-319 318c0,-68 0,-135 0,-202 0,-34 1,-68 0,-101 0,-13 0,-34 -5,-46 -5,-12 -17,-19 -29,-20l-7 0c-9,1 -18,5 -26,12 -7,7 -9,15 -9,29z"/>
   </g>
   <path class="fil4" d="M1766 1033c-11,0 -21,-3 -29,-8 -9,-5 -14,-12 -14,-21l0 -534c0,-10 5,-17 14,-21 8,-4 18,-6 29,-6 11,0 21,2 29,6 9,4 14,11 14,21l0 245 197 -260c5,-8 13,-12 24,-12 11,0 22,4 33,13 11,9 16,20 16,31 0,2 0,5 -1,8 -1,3 -3,6 -5,9l-155 194 185 280c2,5 4,9 4,14 0,12 -6,22 -16,30 -11,9 -23,13 -34,13 -6,0 -12,-1 -17,-4 -6,-2 -10,-6 -14,-12l-165 -250 -52 67 0 168c0,9 -5,16 -14,21 -8,5 -18,8 -29,8z"/>
   <path id="1" class="fil4" d="M2249 1041c-8,0 -15,-2 -20,-4 -6,-3 -11,-8 -13,-15l-125 -326c-3,-6 -5,-11 -5,-14 0,-10 7,-18 19,-25 12,-7 24,-10 36,-10 5,0 11,1 16,3 5,3 8,7 9,12l90 251 69 -223c2,-8 6,-13 12,-15 5,-2 11,-3 17,-3 7,0 14,1 19,3 5,2 9,7 12,15l67 225 91 -253c3,-10 11,-15 25,-15 7,0 15,1 23,4 9,3 16,7 22,13 6,5 9,12 9,19 0,4 -1,9 -4,13l-125 328c-2,6 -6,11 -13,13 -6,2 -13,4 -20,4 -8,0 -16,-2 -22,-4 -6,-3 -10,-7 -12,-12l-72 -209 -69 206c-2,6 -7,11 -13,14 -7,3 -15,5 -23,5z"/>
   <path id="2" class="fil4" d="M2676 1214c-11,0 -20,-2 -28,-6 -7,-5 -11,-14 -11,-30 0,-10 2,-18 5,-26 3,-7 9,-10 18,-10 13,0 28,-5 45,-15 17,-9 32,-23 45,-43 13,-20 22,-45 26,-75l-137 -313c-2,-4 -3,-8 -3,-11 0,-7 3,-14 9,-20 7,-6 14,-11 23,-15 8,-4 16,-6 24,-6 6,0 11,2 16,4 4,2 8,6 10,12l101 262 88 -262c3,-6 6,-10 11,-12 4,-2 9,-4 14,-4 6,0 14,2 23,6 9,4 16,9 23,15 7,6 10,13 10,21 0,5 -1,8 -2,10l-121 316c-9,23 -18,46 -27,70 -9,24 -20,46 -33,66 -14,20 -30,36 -51,48 -20,12 -46,18 -78,18z"/>
   <path id="3" class="fil4" d="M3083 1033c-12,0 -22,-3 -30,-9 -8,-6 -12,-13 -12,-20l0 -554c0,-8 4,-15 12,-20 8,-5 18,-8 30,-8 11,0 22,3 30,8 9,5 13,12 13,20l0 359 169 -155c5,-5 11,-7 18,-7 9,0 18,4 27,13 9,8 14,17 14,27 0,7 -3,13 -7,18l-105 93 127 182c3,6 5,10 5,15 0,10 -5,20 -16,29 -11,9 -21,13 -32,13 -9,0 -16,-4 -22,-12l-119 -175 -59 53 0 101c0,7 -4,14 -13,20 -8,6 -19,9 -30,9z"/>
  </g>
 </g>
</svg>
